<svg xmlns="http://www.w3.org/2000/svg" viewBox="0 0 1200 630" width="1200" height="630" fill="none">
  <defs>
    <linearGradient id="g1" x1="6" y1="4" x2="34" y2="38" gradientUnits="userSpaceOnUse">
      <stop offset="0" stop-color="#818cf8"/><stop offset=".55" stop-color="#38bdf8"/><stop offset="1" stop-color="#22d3ee"/>
    </linearGradient>
    <linearGradient id="gtext" x1="80" y1="360" x2="760" y2="360" gradientUnits="userSpaceOnUse">
      <stop offset="0" stop-color="#6366f1"/><stop offset=".5" stop-color="#0284c7"/><stop offset="1" stop-color="#0d9488"/>
    </linearGradient>
    <radialGradient id="glow" cx="82%" cy="24%" r="55%">
      <stop offset="0" stop-color="#38bdf8" stop-opacity=".16"/><stop offset="1" stop-color="#38bdf8" stop-opacity="0"/>
    </radialGradient>
  </defs>

  <rect width="1200" height="630" fill="#eef1f6"/>
  <rect width="1200" height="630" fill="url(#glow)"/>

  <!-- faint octopus watermark, right side -->
  <g transform="translate(720 70) scale(11)" opacity=".10">
    <g stroke="url(#g1)" stroke-width="2.4" stroke-linecap="round">
      <path d="M12 21.5 C6 25 5.5 31 9.5 34.5"/><path d="M16 22.5 C13 27 12 32.5 15 36"/>
      <path d="M19 23 C18 28.5 17.5 33 19 37"/><path d="M28 21.5 C34 25 34.5 31 30.5 34.5"/>
      <path d="M24 22.5 C27 27 28 32.5 25 36"/><path d="M21 23 C22 28.5 22.5 33 21 37"/>
    </g>
    <path d="M20 4.5 C12.3 4.5 7.5 9.8 7.5 16.4 C7.5 20.6 10.6 23.2 14.8 23.2 L25.2 23.2 C29.4 23.2 32.5 20.6 32.5 16.4 C32.5 9.8 27.7 4.5 20 4.5 Z" fill="url(#g1)"/>
  </g>

  <!-- brand lockup -->
  <g transform="translate(80 66)">
    <g transform="scale(1.55)">
      <g stroke="url(#g1)" stroke-width="2.4" stroke-linecap="round">
        <path d="M12 21.5 C6 25 5.5 31 9.5 34.5"/><path d="M16 22.5 C13 27 12 32.5 15 36"/>
        <path d="M19 23 C18 28.5 17.5 33 19 37"/><path d="M28 21.5 C34 25 34.5 31 30.5 34.5"/>
        <path d="M24 22.5 C27 27 28 32.5 25 36"/><path d="M21 23 C22 28.5 22.5 33 21 37"/>
      </g>
      <path d="M20 4.5 C12.3 4.5 7.5 9.8 7.5 16.4 C7.5 20.6 10.6 23.2 14.8 23.2 L25.2 23.2 C29.4 23.2 32.5 20.6 32.5 16.4 C32.5 9.8 27.7 4.5 20 4.5 Z" fill="url(#g1)"/>
      <rect x="15.2" y="12.8" width="3.2" height="4.3" rx="1.1" fill="#0b1220"/>
      <rect x="21.6" y="12.8" width="3.2" height="4.3" rx="1.1" fill="#0b1220"/>
    </g>
    <text x="82" y="44" font-family="'Space Grotesk',Arial,sans-serif" font-size="34" font-weight="700" fill="#0f1b2d">OctoProbe AI</text>
  </g>

  <!-- headline -->
  <text x="80" y="330" font-family="'Space Grotesk',Arial,sans-serif" font-size="66" font-weight="700" letter-spacing="-1.5" fill="#0f1b2d">Dive deep on any profile —</text>
  <text x="80" y="410" font-family="'Space Grotesk',Arial,sans-serif" font-size="66" font-weight="700" letter-spacing="-1.5" fill="url(#gtext)">surface the entire network.</text>

  <!-- subline -->
  <text x="82" y="486" font-family="'Inter',Arial,sans-serif" font-size="27" fill="#5b6675">AI-native by-hop network intelligence, sourced &amp; timestamped.</text>

  <!-- footer keywords -->
  <text x="82" y="560" font-family="'JetBrains Mono','Courier New',monospace" font-size="21" letter-spacing="1" fill="#0284c7">Law Firms · Investigators · OSINT · MCP-native</text>
  <text x="1120" y="560" text-anchor="end" font-family="'JetBrains Mono','Courier New',monospace" font-size="21" fill="#78828f">octoprobe.ai</text>
</svg>
